<svg width="40" height="40" viewBox="0 0 40 40" fill="none" xmlns="http://www.w3.org/2000/svg">
<path d="M20.0002 3.33325C10.8102 3.33325 3.3335 10.8099 3.3335 19.9999C3.3335 29.1899 10.8102 36.6666 20.0002 36.6666C29.1902 36.6666 36.6668 29.1899 36.6668 19.9999C36.6668 10.8099 29.1902 3.33325 20.0002 3.33325ZM20.0002 33.3333C12.6485 33.3333 6.66683 27.3516 6.66683 19.9999C6.66683 12.6483 12.6485 6.66659 20.0002 6.66659C27.3518 6.66659 33.3335 12.6483 33.3335 19.9999C33.3335 27.3516 27.3518 33.3333 20.0002 33.3333Z" fill="#7E8299"/>
<path d="M14.1665 20C15.5472 20 16.6665 18.8807 16.6665 17.5C16.6665 16.1193 15.5472 15 14.1665 15C12.7858 15 11.6665 16.1193 11.6665 17.5C11.6665 18.8807 12.7858 20 14.1665 20Z" fill="#7E8299"/>
<path d="M25.8218 19.9767C27.1961 19.9767 28.3102 18.8626 28.3102 17.4883C28.3102 16.1141 27.1961 15 25.8218 15C24.4476 15 23.3335 16.1141 23.3335 17.4883C23.3335 18.8626 24.4476 19.9767 25.8218 19.9767Z" fill="#7E8299"/>
<path d="M19.9998 29.9999C26.6665 29.9999 28.3332 23.3333 28.3332 23.3333H11.6665C11.6665 23.3333 13.3332 29.9999 19.9998 29.9999Z" fill="#7E8299"/>
</svg>
