<svg width="35" height="35" viewBox="0 0 35 35" fill="none" xmlns="http://www.w3.org/2000/svg">
<g clip-path="url(#clip0_2199_6147)">
<path d="M17.5019 0.699951C8.2217 0.699951 0.700195 8.22145 0.700195 17.5C0.699966 19.7065 1.1344 21.8914 1.97868 23.93C2.82297 25.9686 4.06057 27.8209 5.6208 29.3811C7.18103 30.9413 9.03334 32.1789 11.0719 33.0232C13.1105 33.8675 15.2954 34.3019 17.5019 34.3017C26.7787 34.3017 34.3019 26.7802 34.3019 17.5C34.3002 8.22145 26.7769 0.699951 17.5019 0.699951ZM17.5002 30.7982C15.7536 30.7982 14.0241 30.4542 12.4105 29.7858C10.7969 29.1174 9.33069 28.1377 8.09567 26.9027C6.86066 25.6677 5.88098 24.2015 5.2126 22.5879C4.54421 20.9743 4.2002 19.2448 4.2002 17.4982C4.2002 15.7516 4.54421 14.0221 5.2126 12.4085C5.88098 10.7949 6.86066 9.3287 8.09567 8.09368C9.33069 6.85866 10.7969 5.87899 12.4105 5.2106C14.0241 4.54222 15.7536 4.1982 17.5002 4.1982C21.0276 4.1982 24.4105 5.59945 26.9047 8.09368C29.3989 10.5879 30.8002 13.9708 30.8002 17.4982C30.8002 21.0256 29.3989 24.4085 26.9047 26.9027C24.4105 29.397 21.0276 30.7982 17.5002 30.7982ZM17.5037 19.6875C11.5117 19.6875 9.41519 23.7387 9.32769 23.912C9.17175 24.2234 9.1459 24.584 9.25585 24.9145C9.36579 25.245 9.60251 25.5183 9.91395 25.6742C10.2254 25.8301 10.586 25.856 10.9165 25.746C11.247 25.6361 11.5202 25.3994 11.6762 25.088C11.6902 25.0582 13.1147 22.3125 17.5037 22.3125C21.8139 22.3125 23.2752 24.9847 23.3277 25.0862C23.4039 25.2418 23.5101 25.3807 23.6402 25.4951C23.7703 25.6094 23.9218 25.6968 24.0859 25.7524C24.25 25.8079 24.4234 25.8304 24.5962 25.8185C24.769 25.8067 24.9378 25.7607 25.0928 25.6834C25.2477 25.606 25.3859 25.4987 25.4992 25.3677C25.6125 25.2367 25.6988 25.0845 25.753 24.92C25.8072 24.7555 25.8284 24.5819 25.8152 24.4092C25.802 24.2365 25.7548 24.0681 25.6762 23.9137C25.5904 23.7405 23.4957 19.6875 17.5037 19.6875Z" fill="#7E8299"/>
<circle cx="22.25" cy="14.25" r="2.25" fill="#7E8299"/>
<circle cx="12.25" cy="14.25" r="2.25" fill="#7E8299"/>
</g>
<defs>
<clipPath id="clip0_2199_6147">
<rect width="35" height="35" fill="white"/>
</clipPath>
</defs>
</svg>
