<svg width="34" height="34" viewBox="0 0 34 34" fill="none" xmlns="http://www.w3.org/2000/svg">
<path d="M4.25 5.66669V1.41669H7.08333V5.66669H11.3333V8.50002H7.08333V12.75H4.25V8.50002H0V5.66669M8.5 14.1667V9.91669H12.75V5.66669H22.6667L25.2167 8.50002H29.75C31.3083 8.50002 32.5833 9.77502 32.5833 11.3334V28.3334C32.5833 29.8917 31.3083 31.1667 29.75 31.1667H7.08333C5.525 31.1667 4.25 29.8917 4.25 28.3334V14.1667M18.4167 26.9167C24.7208 26.9167 27.8942 19.295 23.4317 14.8184C18.9692 10.3559 11.3333 13.5292 11.3333 19.8334C11.3333 23.7434 14.5067 26.9167 18.4167 26.9167ZM13.8833 19.8334C13.8833 23.8709 18.7708 25.8967 21.6183 23.035C24.48 20.1875 22.4542 15.3 18.4167 15.3C17.2155 15.3038 16.0646 15.7826 15.2152 16.6319C14.3659 17.4813 13.8871 18.6322 13.8833 19.8334Z" fill="#CCCCCC"/>
</svg>
