<svg width="26" height="26" viewBox="0 0 26 26" fill="none" xmlns="http://www.w3.org/2000/svg">
<path d="M10.8788 5.0303H14.5152C14.5152 4.54809 14.3236 4.08563 13.9826 3.74465C13.6416 3.40368 13.1792 3.21212 12.697 3.21212C12.2148 3.21212 11.7523 3.40368 11.4113 3.74465C11.0703 4.08563 10.8788 4.54809 10.8788 5.0303ZM9.66667 5.0303C9.66667 4.22662 9.98593 3.45585 10.5542 2.88756C11.1225 2.31926 11.8933 2 12.697 2C13.5007 2 14.2714 2.31926 14.8397 2.88756C15.408 3.45585 15.7273 4.22662 15.7273 5.0303H21.7879C21.9486 5.0303 22.1028 5.09416 22.2164 5.20781C22.3301 5.32147 22.3939 5.47563 22.3939 5.63636C22.3939 5.7971 22.3301 5.95125 22.2164 6.06491C22.1028 6.17857 21.9486 6.24242 21.7879 6.24242H20.5103L19.063 18.7806C18.9607 19.6669 18.5362 20.4847 17.8701 21.0783C17.2041 21.6719 16.3431 21.9999 15.4509 22H9.94303C9.05085 21.9999 8.18983 21.6719 7.5238 21.0783C6.85777 20.4847 6.43321 19.6669 6.33091 18.7806L4.88364 6.24242H3.60606C3.44532 6.24242 3.29117 6.17857 3.17751 6.06491C3.06385 5.95125 3 5.7971 3 5.63636C3 5.47563 3.06385 5.32147 3.17751 5.20781C3.29117 5.09416 3.44532 5.0303 3.60606 5.0303H9.66667ZM7.53455 18.6424C7.60294 19.2332 7.88612 19.7782 8.3302 20.1738C8.77429 20.5694 9.3483 20.788 9.94303 20.7879H15.4509C16.0456 20.788 16.6196 20.5694 17.0637 20.1738C17.5078 19.7782 17.791 19.2332 17.8594 18.6424L19.2897 6.24242H6.10424L7.53455 18.6424ZM10.8788 9.27273C11.0395 9.27273 11.1937 9.33658 11.3073 9.45024C11.421 9.5639 11.4848 9.71805 11.4848 9.87879V17.1515C11.4848 17.3123 11.421 17.4664 11.3073 17.5801C11.1937 17.6937 11.0395 17.7576 10.8788 17.7576C10.7181 17.7576 10.5639 17.6937 10.4502 17.5801C10.3366 17.4664 10.2727 17.3123 10.2727 17.1515V9.87879C10.2727 9.71805 10.3366 9.5639 10.4502 9.45024C10.5639 9.33658 10.7181 9.27273 10.8788 9.27273ZM15.1212 9.87879C15.1212 9.71805 15.0574 9.5639 14.9437 9.45024C14.83 9.33658 14.6759 9.27273 14.5152 9.27273C14.3544 9.27273 14.2003 9.33658 14.0866 9.45024C13.9729 9.5639 13.9091 9.71805 13.9091 9.87879V17.1515C13.9091 17.3123 13.9729 17.4664 14.0866 17.5801C14.2003 17.6937 14.3544 17.7576 14.5152 17.7576C14.6759 17.7576 14.83 17.6937 14.9437 17.5801C15.0574 17.4664 15.1212 17.3123 15.1212 17.1515V9.87879Z" fill="#F1416C"/>
</svg>
