<svg width="24" height="24" viewBox="0 0 24 24" fill="none" xmlns="http://www.w3.org/2000/svg">
<path d="M9.85725 5.14285H14.143C14.143 4.57453 13.9172 4.02949 13.5153 3.62762C13.1135 3.22576 12.5684 2.99999 12.0001 2.99999C11.4318 2.99999 10.8867 3.22576 10.4849 3.62762C10.083 4.02949 9.85725 4.57453 9.85725 5.14285ZM8.57153 5.14285C8.57153 4.23354 8.93276 3.36147 9.57574 2.71848C10.2187 2.0755 11.0908 1.71428 12.0001 1.71428C12.9094 1.71428 13.7815 2.0755 14.4245 2.71848C15.0674 3.36147 15.4287 4.23354 15.4287 5.14285H20.7858C20.9563 5.14285 21.1198 5.21058 21.2404 5.33114C21.3609 5.4517 21.4287 5.61521 21.4287 5.78571C21.4287 5.9562 21.3609 6.11972 21.2404 6.24028C21.1198 6.36084 20.9563 6.42856 20.7858 6.42856H19.663L18.6198 18.9454C18.5439 19.856 18.1286 20.7048 17.4562 21.3235C16.7839 21.9422 15.9035 22.2856 14.9898 22.2857H9.01039C8.09667 22.2856 7.21634 21.9422 6.54396 21.3235C5.87159 20.7048 5.45628 19.856 5.38039 18.9454L4.33725 6.42856H3.21439C3.04389 6.42856 2.88038 6.36084 2.75982 6.24028C2.63926 6.11972 2.57153 5.9562 2.57153 5.78571C2.57153 5.61521 2.63926 5.4517 2.75982 5.33114C2.88038 5.21058 3.04389 5.14285 3.21439 5.14285H8.57153ZM6.66182 18.8383C6.71084 19.4275 6.9795 19.9768 7.41452 20.3772C7.84953 20.7776 8.41915 20.9999 9.01039 21H14.9898C15.5811 20.9999 16.1507 20.7776 16.5857 20.3772C17.0207 19.9768 17.2894 19.4275 17.3384 18.8383L18.3738 6.42856H5.62725L6.66182 18.8383ZM10.0715 9.42856C10.242 9.42856 10.4055 9.49629 10.5261 9.61685C10.6467 9.73741 10.7144 9.90092 10.7144 10.0714V17.3571C10.7144 17.5276 10.6467 17.6911 10.5261 17.8117C10.4055 17.9323 10.242 18 10.0715 18C9.90104 18 9.73752 17.9323 9.61696 17.8117C9.4964 17.6911 9.42867 17.5276 9.42867 17.3571V10.0714C9.42867 9.90092 9.4964 9.73741 9.61696 9.61685C9.73752 9.49629 9.90104 9.42856 10.0715 9.42856ZM14.5715 10.0714C14.5715 9.90092 14.5038 9.73741 14.3832 9.61685C14.2627 9.49629 14.0992 9.42856 13.9287 9.42856C13.7582 9.42856 13.5947 9.49629 13.4741 9.61685C13.3535 9.73741 13.2858 9.90092 13.2858 10.0714V17.3571C13.2858 17.5276 13.3535 17.6911 13.4741 17.8117C13.5947 17.9323 13.7582 18 13.9287 18C14.0992 18 14.2627 17.9323 14.3832 17.8117C14.5038 17.6911 14.5715 17.5276 14.5715 17.3571V10.0714Z" fill="black"/>
</svg>
