<svg width="24" height="24" viewBox="0 0 24 24" fill="none" xmlns="http://www.w3.org/2000/svg">
<path fill-rule="evenodd" clip-rule="evenodd" d="M21.4549 5.416C21.5499 5.5602 21.5922 5.73278 21.5747 5.90458C21.5573 6.07639 21.481 6.23689 21.3589 6.359L12.1659 15.551C12.0718 15.645 11.9545 15.7123 11.8259 15.746L7.99689 16.746C7.87032 16.779 7.73732 16.7783 7.61109 16.7441C7.48485 16.7098 7.36978 16.6431 7.27729 16.5506C7.18479 16.4581 7.1181 16.343 7.08382 16.2168C7.04955 16.0906 7.04888 15.9576 7.08189 15.831L8.08189 12.003C8.11109 11.8881 8.16616 11.7814 8.24289 11.691L17.4699 2.47C17.6105 2.32955 17.8011 2.25066 17.9999 2.25066C18.1986 2.25066 18.3893 2.32955 18.5299 2.47L21.3589 5.298C21.3948 5.334 21.4269 5.37354 21.4549 5.416ZM19.7679 5.828L17.9999 4.061L9.48189 12.579L8.85689 14.972L11.2499 14.347L19.7679 5.828Z" fill="black"/>
<path d="M19.6411 17.16C19.9144 14.8239 20.0017 12.4699 19.9021 10.12C19.8999 10.0646 19.9092 10.0094 19.9293 9.9578C19.9494 9.90618 19.98 9.85927 20.0191 9.81999L21.0031 8.83599C21.0299 8.80895 21.0641 8.79025 21.1013 8.78214C21.1386 8.77402 21.1774 8.77684 21.2131 8.79026C21.2488 8.80367 21.2799 8.82711 21.3026 8.85775C21.3253 8.88839 21.3386 8.92494 21.3411 8.96299C21.5263 11.7542 21.456 14.5566 21.1311 17.335C20.8951 19.357 19.2711 20.942 17.2581 21.167C13.7634 21.554 10.2367 21.554 6.74206 21.167C4.73006 20.942 3.10506 19.357 2.86906 17.335C2.45446 13.7904 2.45446 10.2096 2.86906 6.66499C3.10506 4.64299 4.72906 3.05799 6.74206 2.83299C9.39443 2.53888 12.0668 2.46763 14.7311 2.61999C14.7692 2.62273 14.8057 2.63634 14.8364 2.6592C14.867 2.68207 14.8904 2.71324 14.9039 2.74901C14.9174 2.78479 14.9203 2.82368 14.9124 2.86107C14.9044 2.89846 14.8859 2.93279 14.8591 2.95999L13.8661 3.95199C13.8272 3.99074 13.7807 4.02111 13.7297 4.04124C13.6786 4.06136 13.6239 4.07081 13.5691 4.06899C11.3458 3.99342 9.12001 4.07864 6.90906 4.32399C6.263 4.3955 5.65991 4.68272 5.19721 5.13924C4.73451 5.59577 4.43923 6.19495 4.35906 6.83999C3.9581 10.2683 3.9581 13.7317 4.35906 17.16C4.43923 17.805 4.73451 18.4042 5.19721 18.8607C5.65991 19.3173 6.263 19.6045 6.90906 19.676C10.2641 20.051 13.7361 20.051 17.0921 19.676C17.7381 19.6045 18.3412 19.3173 18.8039 18.8607C19.2666 18.4042 19.5609 17.805 19.6411 17.16Z" fill="black"/>
</svg>
