<svg width="24" height="18" viewBox="0 0 24 18" fill="none" xmlns="http://www.w3.org/2000/svg">
<path d="M24 9C24 9 19.5 0.75 12 0.75C4.5 0.75 0 9 0 9C0 9 4.5 17.25 12 17.25C19.5 17.25 24 9 24 9ZM1.7595 9C2.48477 7.89769 3.31896 6.87103 4.2495 5.9355C6.18 4.002 8.82 2.25 12 2.25C15.18 2.25 17.8185 4.002 19.752 5.9355C20.6825 6.87103 21.5167 7.89769 22.242 9C22.155 9.1305 22.059 9.2745 21.9495 9.432C21.447 10.152 20.7045 11.112 19.752 12.0645C17.8185 13.998 15.1785 15.75 12 15.75C8.82 15.75 6.1815 13.998 4.248 12.0645C3.31747 11.129 2.48478 10.1023 1.7595 9Z" fill="#545BFC"/>
<path d="M12 5.25C11.0054 5.25 10.0516 5.64509 9.34835 6.34835C8.64509 7.05161 8.25 8.00544 8.25 9C8.25 9.99456 8.64509 10.9484 9.34835 11.6517C10.0516 12.3549 11.0054 12.75 12 12.75C12.9946 12.75 13.9484 12.3549 14.6517 11.6517C15.3549 10.9484 15.75 9.99456 15.75 9C15.75 8.00544 15.3549 7.05161 14.6517 6.34835C13.9484 5.64509 12.9946 5.25 12 5.25ZM6.75 9C6.75 7.60761 7.30312 6.27226 8.28769 5.28769C9.27226 4.30312 10.6076 3.75 12 3.75C13.3924 3.75 14.7277 4.30312 15.7123 5.28769C16.6969 6.27226 17.25 7.60761 17.25 9C17.25 10.3924 16.6969 11.7277 15.7123 12.7123C14.7277 13.6969 13.3924 14.25 12 14.25C10.6076 14.25 9.27226 13.6969 8.28769 12.7123C7.30312 11.7277 6.75 10.3924 6.75 9Z" fill="#545BFC"/>
</svg>
