<svg width="24" height="24" viewBox="0 0 24 24" fill="none" xmlns="http://www.w3.org/2000/svg">
<path fill-rule="evenodd" clip-rule="evenodd" d="M19.1352 5.57694C14.8251 5.09522 10.4748 5.09522 6.16467 5.57694C6.09859 5.58452 6.03576 5.60969 5.98273 5.64983C5.92969 5.68997 5.88841 5.74361 5.86317 5.80514C5.83794 5.86668 5.82968 5.93386 5.83926 5.99968C5.84885 6.06549 5.87592 6.12753 5.91765 6.17932L9.72799 10.89C11.0928 12.5773 11.8374 14.6818 11.8374 16.8519V19.9819L13.4625 21.1737V16.8509C13.4627 14.681 14.2073 12.577 15.5719 10.89L19.3822 6.17932C19.424 6.12753 19.451 6.06549 19.4606 5.99968C19.4702 5.93386 19.4619 5.86668 19.4367 5.80514C19.4115 5.74361 19.3702 5.68997 19.3171 5.64983C19.2641 5.60969 19.2013 5.58452 19.1352 5.57694ZM5.98482 3.96159C10.4148 3.46646 14.8862 3.46646 19.3161 3.96159C20.8827 4.1371 21.6379 5.97455 20.6466 7.20097L16.8351 11.9116C15.7043 13.3098 15.0874 15.0537 15.0876 16.8519V22.7771C15.0877 22.9274 15.0461 23.0747 14.9675 23.2028C14.8889 23.3308 14.7763 23.4346 14.6423 23.5025C14.5083 23.5704 14.358 23.5998 14.2083 23.5875C14.0585 23.5751 13.9151 23.5215 13.794 23.4326L10.5438 21.0491C10.4409 20.9735 10.3573 20.8748 10.2997 20.7609C10.2421 20.6471 10.2122 20.5212 10.2123 20.3936V16.8509C10.2123 15.0524 9.59473 13.3092 8.46474 11.9105L4.6544 7.20205C3.662 5.97564 4.41605 4.1371 5.98482 3.96159Z" fill="#141C38"/>
</svg>
