<svg width="34" height="34" viewBox="0 0 34 34" fill="none" xmlns="http://www.w3.org/2000/svg">
<path d="M16.8018 0C7.5215 0 9.11638e-08 7.5215 9.11638e-08 16.8C-0.000229765 19.0065 0.434203 21.1914 1.27849 23.23C2.12277 25.2686 3.36037 27.1209 4.92061 28.6811C6.48084 30.2414 8.33314 31.479 10.3717 32.3233C12.4103 33.1675 14.5953 33.602 16.8018 33.6017C26.0785 33.6017 33.6017 26.0802 33.6017 16.8C33.6 7.5215 26.0768 0 16.8018 0ZM16.8 30.0983C15.0534 30.0983 13.3239 29.7542 11.7103 29.0858C10.0967 28.4175 8.6305 27.4378 7.39548 26.2028C6.16046 24.9678 5.18079 23.5016 4.5124 21.8879C3.84401 20.2743 3.5 18.5448 3.5 16.7983C3.5 15.0517 3.84401 13.3222 4.5124 11.7086C5.18079 10.0949 6.16046 8.62875 7.39548 7.39373C8.6305 6.15871 10.0967 5.17904 11.7103 4.51065C13.3239 3.84226 15.0534 3.49825 16.8 3.49825C20.3274 3.49825 23.7103 4.8995 26.2045 7.39373C28.6988 9.88796 30.1 13.2709 30.1 16.7983C30.1 20.3256 28.6988 23.7085 26.2045 26.2028C23.7103 28.697 20.3274 30.0983 16.8 30.0983Z" fill="#7E8299"/>
<circle cx="21.5498" cy="13.55" r="2.25" fill="#7E8299"/>
<circle cx="11.5498" cy="13.55" r="2.25" fill="#7E8299"/>
<rect x="9" y="21" width="15" height="2.5" rx="1.25" fill="#7E8299"/>
</svg>
