<svg width="38" height="38" viewBox="0 0 38 38" fill="none" xmlns="http://www.w3.org/2000/svg">
<rect width="38" height="38" rx="5" fill="white" fill-opacity="0.1"/>
<path d="M32.5912 18.9953C32.5503 18.9027 31.561 16.7008 29.3615 14.4941C26.4309 11.5539 22.7293 10 18.6551 10C14.5809 10 10.8793 11.5539 7.94869 14.4941C5.74924 16.7008 4.75522 18.9062 4.71901 18.9953C4.66588 19.1152 4.63843 19.245 4.63843 19.3762C4.63843 19.5074 4.66588 19.6371 4.71901 19.757C4.75989 19.8496 5.74924 22.0504 7.94869 24.257C10.8793 27.1961 14.5809 28.75 18.6551 28.75C22.7293 28.75 26.4309 27.1961 29.3615 24.257C31.561 22.0504 32.5503 19.8496 32.5912 19.757C32.6443 19.6371 32.6718 19.5074 32.6718 19.3762C32.6718 19.245 32.6443 19.1152 32.5912 18.9953ZM18.6551 26.875C15.0598 26.875 11.9189 25.5637 9.31882 22.9785C8.25197 21.9141 7.34432 20.7003 6.62411 19.375C7.34413 18.0495 8.2518 16.8358 9.31882 15.7715C11.9189 13.1863 15.0598 11.875 18.6551 11.875C22.2504 11.875 25.3913 13.1863 27.9914 15.7715C29.0603 16.8355 29.97 18.0493 30.6919 19.375C29.8498 20.9523 26.1809 26.875 18.6551 26.875ZM18.6551 13.75C17.5462 13.75 16.4622 14.0799 15.5402 14.698C14.6182 15.3161 13.8996 16.1946 13.4752 17.2224C13.0509 18.2502 12.9398 19.3812 13.1562 20.4724C13.3725 21.5635 13.9065 22.5658 14.6906 23.3525C15.4747 24.1391 16.4737 24.6749 17.5613 24.8919C18.6489 25.109 19.7762 24.9976 20.8007 24.5718C21.8252 24.1461 22.7008 23.4251 23.3169 22.5001C23.933 21.5751 24.2618 20.4875 24.2618 19.375C24.2602 17.8836 23.669 16.4538 22.6179 15.3992C21.5668 14.3447 20.1416 13.7516 18.6551 13.75ZM18.6551 23.125C17.9158 23.125 17.1932 22.9051 16.5785 22.493C15.9638 22.081 15.4848 21.4953 15.2018 20.8101C14.9189 20.1248 14.8449 19.3708 14.9891 18.6434C15.1334 17.916 15.4894 17.2478 16.0121 16.7233C16.5348 16.1989 17.2008 15.8417 17.9259 15.6971C18.651 15.5524 19.4025 15.6266 20.0855 15.9105C20.7685 16.1943 21.3523 16.6749 21.763 17.2916C22.1737 17.9083 22.3929 18.6333 22.3929 19.375C22.3929 20.3696 21.9991 21.3234 21.2981 22.0266C20.5972 22.7299 19.6464 23.125 18.6551 23.125Z" fill="white"/>
</svg>
