<svg width="35" height="35" viewBox="0 0 35 35" fill="none" xmlns="http://www.w3.org/2000/svg">
<g clip-path="url(#clip0_2199_6140)">
<path d="M22.9756 30.625C25.3682 30.6182 27.4531 29.0801 28.1709 26.8926C30.3789 24.3906 31.7188 21.1025 31.7188 17.5C31.7188 9.64551 25.3545 3.28125 17.5 3.28125C9.64551 3.28125 3.28125 9.64551 3.28125 17.5C3.28125 25.3545 9.64551 31.7188 17.5 31.7188C19.4414 31.7188 21.2939 31.3291 22.9756 30.625ZM35 17.5C35 22.1413 33.1563 26.5925 29.8744 29.8744C26.5925 33.1563 22.1413 35 17.5 35C12.8587 35 8.40752 33.1563 5.12563 29.8744C1.84374 26.5925 0 22.1413 0 17.5C0 12.8587 1.84374 8.40752 5.12563 5.12563C8.40752 1.84374 12.8587 0 17.5 0C22.1413 0 26.5925 1.84374 29.8744 5.12563C33.1563 8.40752 35 12.8587 35 17.5ZM26.25 25.2246C26.25 27.002 24.7803 28.4375 22.9688 28.4375C21.1572 28.4375 19.6875 27.002 19.6875 25.2246C19.6875 23.8574 21.6289 21.0957 22.5312 19.9131C22.75 19.6123 23.1875 19.6123 23.4062 19.9131C24.2949 21.0957 26.25 23.8574 26.25 25.2246ZM17.5 20.7812C18.4092 20.7812 19.1406 21.5127 19.1406 22.4219C19.1406 23.3311 18.4092 24.0625 17.5 24.0625C15.4014 24.0625 13.4873 24.8486 12.0312 26.1543C11.3545 26.7559 10.3223 26.7012 9.71387 26.0244C9.10547 25.3477 9.16699 24.3154 9.84375 23.707C11.874 21.8887 14.5605 20.7812 17.5 20.7812ZM14.2461 14.2188C14.2461 14.7989 14.0156 15.3553 13.6054 15.7655C13.1952 16.1758 12.6388 16.4062 12.0586 16.4062C11.4784 16.4062 10.922 16.1758 10.5118 15.7655C10.1016 15.3553 9.87109 14.7989 9.87109 14.2188C9.87109 13.6386 10.1016 13.0822 10.5118 12.672C10.922 12.2617 11.4784 12.0312 12.0586 12.0312C12.6388 12.0312 13.1952 12.2617 13.6054 12.672C14.0156 13.0822 14.2461 13.6386 14.2461 14.2188ZM22.9961 16.4062C22.4159 16.4062 21.8595 16.1758 21.4493 15.7655C21.0391 15.3553 20.8086 14.7989 20.8086 14.2188C20.8086 13.6386 21.0391 13.0822 21.4493 12.672C21.8595 12.2617 22.4159 12.0312 22.9961 12.0312C23.5763 12.0312 24.1327 12.2617 24.5429 12.672C24.9531 13.0822 25.1836 13.6386 25.1836 14.2188C25.1836 14.7989 24.9531 15.3553 24.5429 15.7655C24.1327 16.1758 23.5763 16.4062 22.9961 16.4062Z" fill="#7E8299"/>
</g>
<defs>
<clipPath id="clip0_2199_6140">
<rect width="35" height="35" fill="white" transform="matrix(-1 0 0 1 35 0)"/>
</clipPath>
</defs>
</svg>
